<svg width="213" height="258" viewBox="0 0 213 258" fill="none" xmlns="http://www.w3.org/2000/svg">
<path d="M62.0849 34.8447H24.0701C11.0321 34.8447 0.507324 45.3695 0.507324 58.4075C0.507324 58.7217 0.664391 59.0359 0.978562 59.193C3.02067 70.0319 12.6029 78.2003 24.0701 78.2003H40.7212C42.135 61.078 49.9893 45.8407 62.0849 34.8447Z" fill="#0A3041"/>
<path d="M107.796 125.325C100.57 125.325 94.915 131.138 94.915 138.206C94.915 141.662 96.3288 144.804 98.528 147.16C100.884 149.517 104.183 151.087 107.796 151.087C111.409 151.087 114.551 149.674 116.907 147.317C119.263 144.961 120.677 141.819 120.677 138.206C120.677 131.138 114.865 125.325 107.796 125.325Z" fill="#4F7BBD"/>
<path d="M101.671 78.3572H172.673C170.788 55.7369 157.593 36.4154 138.9 25.8907L150.996 3.89873C151.624 2.79913 151.153 1.38536 150.053 0.757021C148.954 0.128679 147.54 0.599936 146.911 1.69953L134.659 23.8486C126.176 19.9214 116.751 17.7223 106.698 17.7223C96.6441 17.7223 87.219 19.9214 78.7363 23.8486L66.4837 1.69953C65.8553 0.599936 64.4416 0.128679 63.342 0.757021C62.2424 1.38536 61.7711 2.79913 62.3995 3.89873L74.4951 25.8907C69.9396 28.4041 65.8554 31.3887 62.0853 34.8446C49.9897 45.8405 42.1354 61.0778 40.7217 78.3572H90.5177H101.671ZM137.015 46.7831C140.785 46.7831 143.77 49.7677 143.77 53.5377C143.77 57.3078 140.785 60.2924 137.015 60.2924C133.245 60.2924 130.26 57.3078 130.26 53.5377C130.26 49.7677 133.245 46.7831 137.015 46.7831ZM76.223 60.2924C72.453 60.2924 69.4683 57.3078 69.4683 53.5377C69.4683 49.7677 72.453 46.7831 76.223 46.7831C79.9931 46.7831 82.9777 49.7677 82.9777 53.5377C82.9777 57.3078 79.9931 60.2924 76.223 60.2924Z" fill="#64B87B"/>
<path d="M100.099 186.59L83.2905 223.191L130.416 223.034L114.551 186.747C111.88 180.62 102.926 180.463 100.099 186.59Z" fill="#4F7BBD"/>
<path d="M189.324 78.3575H172.673H101.67H90.5173H40.7212H24.0701C12.6029 78.3575 3.17776 70.189 0.978562 59.3501C0.664391 59.036 0.507324 58.7218 0.507324 58.5647V78.5146V102.077V117.786V199.627C0.507324 212.666 11.0321 223.19 24.0701 223.19H63.6557L96.3295 152.345C94.9157 151.245 93.8161 149.988 92.8736 148.418C97.4291 149.36 102.142 149.988 106.854 149.988C112.666 149.988 118.164 149.203 123.505 147.789C122.406 149.517 120.992 151.088 119.264 152.502L150.053 223.033H182.098V118.728H189.324C201.577 118.728 211.63 117.786 212.73 101.92H212.887C212.887 88.8822 202.205 78.3575 189.324 78.3575Z" fill="#4F7BBD"/>
<path d="M212.729 101.92C211.473 117.785 201.419 118.728 189.324 118.728H182.098V223.19V223.347V224.918V257.434H189.324C202.362 257.434 212.886 256.335 212.886 237.17V224.761V223.033V199.784V199.627V183.761V183.604L212.729 101.92Z" fill="#0A3041"/>
<path d="M155.551 236.071L149.896 223.19L119.107 152.659C123.348 149.36 126.019 144.019 126.019 138.207C126.019 129.41 119.893 122.027 111.567 120.299V113.073C111.567 110.874 109.839 109.146 107.64 109.146C105.441 109.146 103.713 110.874 103.713 113.073V120.299C95.3873 122.027 89.2609 129.41 89.2609 138.207C89.2609 144.019 91.9313 149.046 96.0156 152.502L63.4989 223.19L57.6867 235.757C55.6446 240.312 57.5297 245.653 62.0851 247.695C66.6406 249.738 71.9815 247.852 74.0236 243.297L83.2917 223.19L100.1 186.589C102.927 180.463 111.724 180.463 114.552 186.746L130.417 223.033L139.214 243.14C140.628 246.439 143.927 248.481 147.383 248.481C148.639 248.481 149.739 248.167 150.995 247.695C155.551 245.81 157.593 240.627 155.551 236.071ZM107.797 151.088C104.184 151.088 100.885 149.674 98.5289 147.161C96.3297 144.804 94.916 141.663 94.916 138.207C94.916 131.138 100.728 125.326 107.797 125.326C114.866 125.326 120.678 131.138 120.678 138.207C120.678 141.82 119.264 144.961 116.908 147.318C114.552 149.674 111.253 151.088 107.797 151.088Z" fill="#0A3041"/>
</svg>
