<svg width="238" height="97" viewBox="0 0 238 97" fill="none" xmlns="http://www.w3.org/2000/svg">
<path d="M237.72 80.3285C237.72 83.4711 236.789 86.5432 235.043 89.1562C233.297 91.7692 230.815 93.8059 227.912 95.0085C225.008 96.2111 221.813 96.5258 218.731 95.9127C215.649 95.2996 212.818 93.7863 210.595 91.5641C208.373 89.3419 206.86 86.5106 206.247 83.4284C205.634 80.3461 205.948 77.1513 207.151 74.2479C208.354 71.3444 210.39 68.8628 213.003 67.1169C215.616 65.3709 218.688 64.439 221.831 64.439C226.045 64.439 230.087 66.113 233.066 69.0929C236.046 72.0728 237.72 76.1143 237.72 80.3285Z" fill="white"/>
<path d="M190.168 86.3813C197.862 80.3683 203.174 71.8222 205.16 62.2621C207.147 52.702 205.679 42.7472 201.019 34.167C196.358 25.5867 188.806 18.937 179.705 15.3996C170.604 11.8622 160.543 11.6663 151.311 14.8468C142.08 18.0273 134.274 24.3781 129.283 32.7705C124.292 41.1628 122.438 51.053 124.051 60.6832C125.665 70.3134 130.64 79.0597 138.093 85.3676C145.547 91.6755 154.995 95.1363 164.759 95.135C173.97 95.1404 182.916 92.0584 190.168 86.3813Z" fill="white"/>
<path d="M82.4377 51.0487V0C77.0235 0.00140415 71.7 1.39112 66.976 4.03639C62.2519 6.68166 58.2851 10.4941 55.4544 15.1095C47.21 12.0919 38.2181 11.7821 29.7855 14.225C21.353 16.668 13.9192 21.7365 8.56461 28.6939C3.21002 35.6512 0.213662 44.1349 0.0110023 52.9118C-0.191657 61.6888 2.40994 70.3017 7.4377 77.4988C12.4655 84.6959 19.6574 90.102 27.9682 92.9316C36.279 95.7612 45.2757 95.8667 53.6506 93.2329C62.0255 90.599 69.3422 85.363 74.5374 78.2859C79.7326 71.2087 82.5356 62.6592 82.5388 53.8799C82.5388 52.9121 82.4955 51.9732 82.4377 51.0487Z" fill="white"/>
<path d="M102.734 31.7931C98.5642 31.7969 94.5668 33.4559 91.6199 36.4056C88.6729 39.3552 87.0176 43.3542 87.0176 47.5237V95.1923C95.4166 95.1885 103.47 91.8493 109.408 85.9089C115.346 79.9686 118.681 71.9134 118.681 63.5144V47.7404C118.689 45.644 118.281 43.5668 117.483 41.6286C116.684 39.6903 115.51 37.9293 114.027 36.4469C112.545 34.9646 110.784 33.7902 108.846 32.9915C106.907 32.1927 104.83 31.7854 102.734 31.7931Z" fill="white"/>
<path d="M102.849 31.6635C111.593 31.6635 118.681 24.5754 118.681 15.8318C118.681 7.08814 111.593 0 102.849 0C94.1057 0 87.0176 7.08814 87.0176 15.8318C87.0176 24.5754 94.1057 31.6635 102.849 31.6635Z" fill="white"/>
</svg>
